<svg width="59" height="59" viewBox="0 0 59 59" fill="none" xmlns="http://www.w3.org/2000/svg">
<path fill-rule="evenodd" clip-rule="evenodd" d="M59 29.5C59 45.7924 45.7924 59 29.5 59C13.2076 59 0 45.7924 0 29.5C0 13.2076 13.2076 0 29.5 0C45.7924 0 59 13.2076 59 29.5ZM56.64 29.5C56.64 44.489 44.489 56.64 29.5 56.64C14.511 56.64 2.36 44.489 2.36 29.5C2.36 14.511 14.511 2.36 29.5 2.36C44.489 2.36 56.64 14.511 56.64 29.5Z" fill="white"/>
<path fill-rule="evenodd" clip-rule="evenodd" d="M12.7793 36.3332C12.6308 36.1847 12.6308 36.0362 12.7793 35.8878C13.0763 35.5908 13.4476 35.4794 13.893 35.5536C14.3385 35.6279 14.5984 35.7021 14.6726 35.7764C15.1924 35.9991 15.7678 36.5003 16.3988 37.2799C17.0299 38.0595 17.5311 38.5978 17.9024 38.8948C19.6843 40.3797 21.5033 40.4911 23.3595 39.2289C23.508 38.7092 23.7493 38.2637 24.0834 37.8925C24.4174 37.5212 24.733 37.2614 25.03 37.1129C25.327 36.9644 25.8468 36.7416 26.5892 36.4447C24.1391 36.2219 22.153 35.795 20.6309 35.1639C19.1088 34.5328 17.9023 33.7346 17.0113 32.7695C15.8234 31.433 15.0995 29.6882 14.8396 27.5351C14.5797 25.3819 14.7468 23.4144 15.3408 21.6325C15.7863 20.5188 16.4174 19.5164 17.2341 18.6255C16.6401 16.7693 16.7515 14.6533 17.5682 12.2774C19.9441 12.4259 22.0972 13.2426 24.0276 14.7275C27.74 13.7623 31.6008 13.7252 35.6101 14.6162C36.1298 14.2449 36.928 13.7809 38.0045 13.224C39.0811 12.6671 40.4361 12.3516 42.0696 12.2773C42.3665 13.0941 42.5707 14.0593 42.6821 15.173C42.7935 16.2867 42.7378 17.3261 42.5151 18.2913C44.2228 20.0732 45.1137 22.4491 45.188 25.419C45.188 27.7949 44.7796 29.7624 43.9629 31.3216C43.1462 32.8808 41.6984 34.1801 39.6195 35.2195C38.2088 35.8878 36.3526 36.2961 34.051 36.4446C35.0904 36.9643 35.8515 37.5026 36.3341 38.0595C36.8167 38.6164 37.1323 39.4888 37.2808 40.6767V44.1848C37.2808 44.1848 37.3179 45.3171 37.3921 47.5816C37.6149 47.9529 37.8747 48.2684 38.1717 48.5283C38.4687 48.7882 38.7286 48.9738 38.9513 49.0852C39.1741 49.1965 39.2483 49.3636 39.1741 49.5864C39.0998 49.8091 38.8028 49.9205 38.2831 49.9205C37.0209 49.9205 36.0186 49.475 35.2761 48.584C35.0534 48.2128 34.942 47.7673 34.942 47.2476V41.9018C34.942 41.3079 34.7935 40.8809 34.4965 40.6211C34.1995 40.3612 33.9025 40.1941 33.6056 40.1199V47.1362C33.6056 48.3984 33.7541 49.2151 34.051 49.5863C34.348 49.9575 34.5336 50.3288 34.6079 50.7C34.6821 50.7743 34.6265 50.8299 34.4409 50.867C34.2553 50.9041 33.9397 50.8485 33.4942 50.7C32.529 50.4773 31.8608 49.9761 31.4895 49.1965C31.1183 48.4169 30.9327 47.5816 30.9327 46.6906V39.7857H29.4849V46.6906C29.4849 47.5816 29.2993 48.4354 28.928 49.2521C28.4083 50.2916 27.4431 50.8484 26.0324 50.9227C25.8097 50.8484 25.6983 50.7742 25.6983 50.6999C25.7725 50.6257 25.9953 50.2545 26.3665 49.5862C26.4408 49.4378 26.5336 49.1408 26.645 48.6953C26.7564 48.2498 26.812 47.7301 26.812 47.1361V40.1198C26.515 40.1941 26.2366 40.3611 25.9767 40.621C25.7168 40.8809 25.5869 41.3078 25.5869 41.9018V47.2475C25.5869 47.7673 25.4755 48.2127 25.2528 48.584C24.5845 49.4749 23.5822 49.9204 22.2458 49.9204C21.7261 49.9204 21.4291 49.809 21.3548 49.5863C21.2806 49.4378 21.2991 49.3079 21.4105 49.1965C21.5219 49.0851 21.689 48.9552 21.9117 48.8067C22.1345 48.6582 22.283 48.5468 22.3572 48.4725C22.6542 48.2498 22.8769 47.9528 23.0254 47.5816C23.2482 47.2846 23.3038 46.505 23.1924 45.2428C23.0811 43.9806 23.0625 43.1639 23.1367 42.7927C21.2063 43.4609 19.2388 43.1268 17.2341 41.7904C16.6402 41.1964 16.0462 40.3426 15.4522 39.2289C15.0067 38.4121 14.1158 37.4469 12.7793 36.3332Z" fill="white"/>
</svg>
