<svg width="59" height="59" viewBox="0 0 59 59" fill="none" xmlns="http://www.w3.org/2000/svg">
<path id="linkedin_L" fill-rule="evenodd" clip-rule="evenodd" d="M58.0167 29.5C58.0167 45.7924 45.0292 59 29.0083 59C12.9875 59 0 45.7924 0 29.5C0 13.2076 12.9875 0 29.0083 0C45.0292 0 58.0167 13.2076 58.0167 29.5ZM55.696 29.5C55.696 44.489 43.7475 56.64 29.0083 56.64C14.2691 56.64 2.32067 44.489 2.32067 29.5C2.32067 14.511 14.2691 2.36 29.0083 2.36C43.7475 2.36 55.696 14.511 55.696 29.5ZM20.7197 43.66V21.4669H14.1508V43.66H20.7197ZM17.4352 11.8C15.3176 11.8 13.9347 13.2977 13.9779 15.2946C13.9347 17.2008 15.3176 18.7438 17.392 18.7438C19.5529 18.7438 20.9358 17.2008 20.9358 15.2946C20.8926 13.2977 19.5529 11.8 17.4352 11.8ZM25.9922 43.66H32.5612V30.8615C32.5612 30.2262 32.6476 29.5454 32.8205 29.1369C33.2526 27.8662 34.3331 26.55 36.1482 26.55C38.5251 26.55 39.4759 28.5015 39.4759 31.3608V43.66H46.0449V30.4985C46.0449 23.9631 42.8036 20.9677 38.4819 20.9677C34.9813 20.9677 32.8205 23.1008 31.9561 24.5077H31.8265L31.524 21.4669H25.8193C25.9058 23.4185 25.9922 25.7785 25.9922 28.5469V43.66Z" fill="white"/>
</svg>
