<svg width="59" height="59" viewBox="0 0 59 59" fill="none" xmlns="http://www.w3.org/2000/svg">
<path fill-rule="evenodd" clip-rule="evenodd" d="M58.0167 29.5C58.0167 45.7924 45.0292 59 29.0083 59C12.9875 59 0 45.7924 0 29.5C0 13.2076 12.9875 0 29.0083 0C45.0292 0 58.0167 13.2076 58.0167 29.5ZM55.696 29.5C55.696 44.489 43.7475 56.64 29.0083 56.64C14.2691 56.64 2.32067 44.489 2.32067 29.5C2.32067 14.511 14.2691 2.36 29.0083 2.36C43.7475 2.36 55.696 14.511 55.696 29.5Z" fill="white"/>
<path fill-rule="evenodd" clip-rule="evenodd" d="M38.6423 41.3514V31.946H41.7119V44.473H14.0059V31.946H17.0755V41.3514H38.6423Z" fill="white"/>
<path fill-rule="evenodd" clip-rule="evenodd" d="M20.464 31.0541L35.5329 34.2568L36.1707 31.1757L21.1018 27.973L20.464 31.0541ZM22.4572 23.7568L36.4099 30.3649L37.6856 27.527L23.7329 20.8784L22.4572 23.7568ZM26.3241 16.7838L38.164 26.7973L40.1173 24.4054L28.2775 14.3919L26.3241 16.7838ZM33.9782 9.36487L31.5065 11.2297L40.6755 23.7973L43.1471 21.9324L33.9782 9.36487ZM20.1451 38.1892H35.5329V35.0676H20.1451V38.1892Z" fill="white"/>
</svg>
